<?xml version="1.0" encoding="UTF-8" standalone="no"?>
<!-- Generator: Adobe Illustrator 19.0.0, SVG Export Plug-In . SVG Version: 6.00 Build 0)  -->

<svg
   version="1.1"
   id="Layer_1"
   x="0px"
   y="0px"
   viewBox="0 0 512 512"
   style="enable-background:new 0 0 512 512;"
   xml:space="preserve"
   sodipodi:docname="drop.svg"
   inkscape:version="1.1.2 (0a00cf5339, 2022-02-04)"
   xmlns:inkscape="http://www.inkscape.org/namespaces/inkscape"
   xmlns:sodipodi="http://sodipodi.sourceforge.net/DTD/sodipodi-0.dtd"
   xmlns="http://www.w3.org/2000/svg"
   xmlns:svg="http://www.w3.org/2000/svg"><defs
   id="defs47" /><sodipodi:namedview
   id="namedview45"
   pagecolor="#ffffff"
   bordercolor="#666666"
   borderopacity="1.0"
   inkscape:pageshadow="2"
   inkscape:pageopacity="0.0"
   inkscape:pagecheckerboard="0"
   showgrid="false"
   inkscape:zoom="1.5273438"
   inkscape:cx="255.67263"
   inkscape:cy="277.9335"
   inkscape:window-width="1920"
   inkscape:window-height="954"
   inkscape:window-x="0"
   inkscape:window-y="27"
   inkscape:window-maximized="1"
   inkscape:current-layer="Layer_1" />
<g
   id="g6"
   style="fill:#ffffff">
	<g
   id="g4"
   style="fill:#ffffff">
		<path
   d="M264.06,3.68C262.034,1.343,259.094,0,256,0c-3.094,0-6.034,1.343-8.06,3.68C240.43,12.344,64,217.057,64,320    c0,105.87,86.13,192,192,192c105.87,0,192-86.13,192-192C448,217.057,271.57,12.344,264.06,3.68z M256,490.667    c-94.105,0-170.667-76.561-170.667-170.667c0-83.262,135.827-251.135,170.672-292.825c14.978,17.9,48.599,59.077,81.921,106.717    C395.981,216.895,426.667,281.25,426.667,320C426.667,414.106,350.106,490.667,256,490.667z"
   id="path2"
   style="fill:#ffffff" />
	</g>
</g>
<g
   id="g12"
   style="fill:#ffffff">
	<g
   id="g10"
   style="fill:#ffffff">
		<path
   d="M256,437.333c-64.698,0-117.333-52.635-117.333-117.333c0-5.89-4.776-10.667-10.667-10.667    c-5.89,0-10.667,4.776-10.667,10.667c0,76.461,62.206,138.667,138.667,138.667c5.891,0,10.667-4.776,10.667-10.667    C266.667,442.11,261.891,437.333,256,437.333z"
   id="path8"
   style="fill:#ffffff" />
	</g>
</g>
<g
   id="g14">
</g>
<g
   id="g16">
</g>
<g
   id="g18">
</g>
<g
   id="g20">
</g>
<g
   id="g22">
</g>
<g
   id="g24">
</g>
<g
   id="g26">
</g>
<g
   id="g28">
</g>
<g
   id="g30">
</g>
<g
   id="g32">
</g>
<g
   id="g34">
</g>
<g
   id="g36">
</g>
<g
   id="g38">
</g>
<g
   id="g40">
</g>
<g
   id="g42">
</g>
</svg>
