<?xml version="1.0" encoding="UTF-8" standalone="no"?>
<!-- Generator: Adobe Illustrator 17.1.0, SVG Export Plug-In . SVG Version: 6.00 Build 0)  -->

<svg
   version="1.1"
   id="Capa_1"
   x="0px"
   y="0px"
   viewBox="0 0 365.447 365.447"
   style="enable-background:new 0 0 365.447 365.447;"
   xml:space="preserve"
   sodipodi:docname="wind.svg"
   inkscape:version="1.1.2 (0a00cf5339, 2022-02-04)"
   xmlns:inkscape="http://www.inkscape.org/namespaces/inkscape"
   xmlns:sodipodi="http://sodipodi.sourceforge.net/DTD/sodipodi-0.dtd"
   xmlns="http://www.w3.org/2000/svg"
   xmlns:svg="http://www.w3.org/2000/svg"><defs
   id="defs49" /><sodipodi:namedview
   id="namedview47"
   pagecolor="#ffffff"
   bordercolor="#666666"
   borderopacity="1.0"
   inkscape:pageshadow="2"
   inkscape:pageopacity="0.0"
   inkscape:pagecheckerboard="0"
   showgrid="false"
   inkscape:zoom="2.1398452"
   inkscape:cx="182.48983"
   inkscape:cy="-123.13975"
   inkscape:window-width="1920"
   inkscape:window-height="954"
   inkscape:window-x="0"
   inkscape:window-y="27"
   inkscape:window-maximized="1"
   inkscape:current-layer="Capa_1" />
<g
   id="g14"
   style="fill:#ffffff">
	<g
   id="g4"
   style="fill:#ffffff">
		<path
   d="M306.069,189.427H7.5c-4.143,0-7.5-3.358-7.5-7.5s3.357-7.5,7.5-7.5h297.119c0.469-0.092,0.954-0.14,1.45-0.14    c24.47,0,44.378-19.908,44.378-44.378S330.539,85.53,306.069,85.53s-44.378,19.908-44.378,44.378c0,4.142-3.357,7.5-7.5,7.5    s-7.5-3.358-7.5-7.5c0-32.741,26.637-59.378,59.378-59.378s59.378,26.637,59.378,59.378c0,32.224-25.801,58.535-57.829,59.358    C307.118,189.372,306.601,189.427,306.069,189.427z"
   id="path2"
   style="fill:#ffffff" />
	</g>
	<g
   id="g8"
   style="fill:#ffffff">
		<path
   d="M152.283,137.479H7.5c-4.143,0-7.5-3.358-7.5-7.5s3.357-7.5,7.5-7.5h143.333c0.469-0.092,0.954-0.14,1.45-0.14    c24.47,0,44.378-19.908,44.378-44.378s-19.908-44.378-44.378-44.378c-24.471,0-44.379,19.908-44.379,44.378    c0,4.142-3.357,7.5-7.5,7.5s-7.5-3.358-7.5-7.5c0-32.741,26.638-59.378,59.379-59.378s59.378,26.637,59.378,59.378    c0,32.224-25.801,58.535-57.829,59.358C153.332,137.423,152.814,137.479,152.283,137.479z"
   id="path6"
   style="fill:#ffffff" />
	</g>
	<g
   id="g12"
   style="fill:#ffffff">
		<path
   d="M244.186,346.866c-32.741,0-59.379-26.637-59.379-59.378c0-4.142,3.357-7.5,7.5-7.5s7.5,3.358,7.5,7.5    c0,24.47,19.908,44.378,44.379,44.378c24.47,0,44.378-19.908,44.378-44.378s-19.908-44.378-44.378-44.378H7.5    c-4.143,0-7.5-3.358-7.5-7.5s3.357-7.5,7.5-7.5h236.686c32.741,0,59.378,26.637,59.378,59.378S276.927,346.866,244.186,346.866z"
   id="path10"
   style="fill:#ffffff" />
	</g>
</g>
<g
   id="g16">
</g>
<g
   id="g18">
</g>
<g
   id="g20">
</g>
<g
   id="g22">
</g>
<g
   id="g24">
</g>
<g
   id="g26">
</g>
<g
   id="g28">
</g>
<g
   id="g30">
</g>
<g
   id="g32">
</g>
<g
   id="g34">
</g>
<g
   id="g36">
</g>
<g
   id="g38">
</g>
<g
   id="g40">
</g>
<g
   id="g42">
</g>
<g
   id="g44">
</g>
</svg>
